{"accessors":[{"bufferView":0,"componentType":5125,"count":39300,"name":"index","type":"SCALAR"},{"bufferView":1,"componentType":5126,"count":8860,"max":[0.0771000012755394,0.11590000241994858,0.06780000030994415],"min":[-0.060600001364946365,0.00419999985024333,-0.03200000151991844],"name":"position","type":"VEC3"},{"bufferView":1,"byteOffset":12,"componentType":5126,"count":8860,"name":"texture_cooridinate","type":"VEC2"}],"asset":{"version":"2.0"},"bufferViews":[{"buffer":0,"byteLength":157200,"name":"indices"},{"buffer":0,"byteLength":177200,"byteOffset":157200,"byteStride":20,"name":"vertices"},{"buffer":1,"byteLength":729702}],"buffers":[{"byteLength":334400,"name":"geometry","uri":"data:application/octet-stream;base64,"},{"byteLength":729702,"name":"diffuse_texture","uri":"data:application/octet-stream;base64,"}],"extensionsUsed":["KHR_materials_unlit"],"images":[{"bufferView":2,"mimeType":"image/jpeg"}],"materials":[{"extensions":{"KHR_materials_unlit":{}},"name":"material_0","pbrMetallicRoughness":{"baseColorTexture":{"index":0}}}],"meshes":[{"primitives":[{"attributes":{"POSITION":1,"TEXCOORD_0":2},"indices":0,"material":0,"mode":4}]}],"nodes":[{"mesh":0}],"samplers":[{"wrapR":10497,"wrapS":10497,"wrapT":10497}],"scene":0,"scenes":[{"nodes":[0]}],"textures":[{"sampler":0,"source":0}]}
